<?xml version="1.0" standalone="no"?>
<!DOCTYPE svg PUBLIC "-//W3C//DTD SVG 20010904//EN"
 "http://www.w3.org/TR/2001/REC-SVG-20010904/DTD/svg10.dtd">
<svg version="1.0" xmlns="http://www.w3.org/2000/svg"
 width="128.000000pt" height="128.000000pt" viewBox="0 0 128.000000 128.000000"
 preserveAspectRatio="xMidYMid meet">
<metadata>
Created by potrace 1.16, written by Peter Selinger 2001-2019
</metadata>
<g transform="translate(0.000000,128.000000) scale(0.100000,-0.100000)"
fill="#000000" stroke="none">
<path d="M565 1139 c-120 -64 -382 -213 -394 -224 -16 -16 -24 -11 214 -140
99 -53 196 -106 216 -117 l37 -20 188 102 c309 168 298 161 282 175 -7 8 -107
66 -223 129 -229 127 -249 133 -320 95z"/>
<path d="M110 385 c0 -32 21 -74 52 -101 12 -12 115 -73 228 -135 176 -98 211
-114 250 -114 39 0 74 16 250 114 113 62 216 123 228 135 30 27 52 68 52 98 0
21 -1 21 -19 -7 -28 -46 -41 -55 -266 -180 -194 -108 -213 -116 -250 -110 -23
3 -109 44 -205 97 -268 149 -276 154 -294 193 -20 42 -26 44 -26 10z"/>
</g>
</svg>
